<mxfile host="drawio-plugin" modified="2024-06-05T12:08:56.150Z" agent="5.0 (Macintosh; Intel Mac OS X 14_5_0) AppleWebKit/537.36 (KHTML, like Gecko) Chrome/87.0.4280.66 Safari/537.36" etag="jvu8q-KvYKAdvOFyvMAX" version="14.7.4" type="embed"><diagram name="Page-1" id="Xx7s8Fw7Fm7sLQ-zYCcK"><mxGraphModel dx="731" dy="658" grid="1" gridSize="10" guides="1" tooltips="1" connect="1" arrows="1" fold="1" page="1" pageScale="1" pageWidth="850" pageHeight="1100" math="0" shadow="0"><root><mxCell id="0"/><mxCell id="1" parent="0"/><mxCell id="a5JTyvkSUc_b9KrqOxhA-9" style="edgeStyle=orthogonalEdgeStyle;rounded=0;orthogonalLoop=1;jettySize=auto;html=1;" parent="1" source="S_5cmG7fAWhGw4ZSyo-F-1" target="a5JTyvkSUc_b9KrqOxhA-7" edge="1"><mxGeometry relative="1" as="geometry"/></mxCell><mxCell id="a5JTyvkSUc_b9KrqOxhA-27" style="edgeStyle=orthogonalEdgeStyle;rounded=0;orthogonalLoop=1;jettySize=auto;html=1;exitX=0.5;exitY=1;exitDx=0;exitDy=0;entryX=0.5;entryY=0;entryDx=0;entryDy=0;" parent="1" source="S_5cmG7fAWhGw4ZSyo-F-1" target="a5JTyvkSUc_b9KrqOxhA-21" edge="1"><mxGeometry relative="1" as="geometry"/></mxCell><mxCell id="S_5cmG7fAWhGw4ZSyo-F-1" value="1.Branch" style="shape=ellipse;html=1;dashed=0;whiteSpace=wrap;aspect=fixed;perimeter=ellipsePerimeter;" parent="1" vertex="1"><mxGeometry x="190" y="50" width="130" height="130" as="geometry"/></mxCell><mxCell id="a5JTyvkSUc_b9KrqOxhA-2" value="table&lt;div&gt;branch&lt;/div&gt;" style="shape=cylinder;whiteSpace=wrap;html=1;boundedLbl=1;backgroundOutline=1;" parent="1" vertex="1"><mxGeometry x="550" y="80" width="60" height="100" as="geometry"/></mxCell><mxCell id="a5JTyvkSUc_b9KrqOxhA-12" style="edgeStyle=orthogonalEdgeStyle;rounded=0;orthogonalLoop=1;jettySize=auto;html=1;entryX=0;entryY=0.5;entryDx=0;entryDy=0;" parent="1" source="a5JTyvkSUc_b9KrqOxhA-7" target="a5JTyvkSUc_b9KrqOxhA-2" edge="1"><mxGeometry relative="1" as="geometry"/></mxCell><mxCell id="a5JTyvkSUc_b9KrqOxhA-7" value="1. Create" style="html=1;dashed=0;whiteSpace=wrap;" parent="1" vertex="1"><mxGeometry x="370" y="60" width="100" height="50" as="geometry"/></mxCell><mxCell id="a5JTyvkSUc_b9KrqOxhA-8" value="2. Update" style="html=1;dashed=0;whiteSpace=wrap;" parent="1" vertex="1"><mxGeometry x="375" y="141" width="100" height="50" as="geometry"/></mxCell><mxCell id="a5JTyvkSUc_b9KrqOxhA-10" style="edgeStyle=orthogonalEdgeStyle;rounded=0;orthogonalLoop=1;jettySize=auto;html=1;entryX=0.018;entryY=0.587;entryDx=0;entryDy=0;entryPerimeter=0;" parent="1" source="S_5cmG7fAWhGw4ZSyo-F-1" target="a5JTyvkSUc_b9KrqOxhA-8" edge="1"><mxGeometry relative="1" as="geometry"/></mxCell><mxCell id="a5JTyvkSUc_b9KrqOxhA-13" style="edgeStyle=orthogonalEdgeStyle;rounded=0;orthogonalLoop=1;jettySize=auto;html=1;entryX=-0.033;entryY=0.748;entryDx=0;entryDy=0;entryPerimeter=0;" parent="1" source="a5JTyvkSUc_b9KrqOxhA-8" target="a5JTyvkSUc_b9KrqOxhA-2" edge="1"><mxGeometry relative="1" as="geometry"/></mxCell><mxCell id="a5JTyvkSUc_b9KrqOxhA-15" value="table&lt;div&gt;user&lt;/div&gt;" style="shape=cylinder;whiteSpace=wrap;html=1;boundedLbl=1;backgroundOutline=1;" parent="1" vertex="1"><mxGeometry x="560" y="259" width="60" height="100" as="geometry"/></mxCell><mxCell id="a5JTyvkSUc_b9KrqOxhA-72" style="edgeStyle=orthogonalEdgeStyle;rounded=0;orthogonalLoop=1;jettySize=auto;html=1;entryX=1;entryY=0.5;entryDx=0;entryDy=0;" parent="1" source="a5JTyvkSUc_b9KrqOxhA-17" target="a5JTyvkSUc_b9KrqOxhA-70" edge="1"><mxGeometry relative="1" as="geometry"><Array as="points"><mxPoint x="1140" y="375"/></Array></mxGeometry></mxCell><mxCell id="a5JTyvkSUc_b9KrqOxhA-17" value="Create" style="html=1;dashed=0;whiteSpace=wrap;" parent="1" vertex="1"><mxGeometry x="1090" y="249" width="100" height="50" as="geometry"/></mxCell><mxCell id="a5JTyvkSUc_b9KrqOxhA-18" value="2. Update" style="html=1;dashed=0;whiteSpace=wrap;" parent="1" vertex="1"><mxGeometry x="370" y="280" width="100" height="50" as="geometry"/></mxCell><mxCell id="a5JTyvkSUc_b9KrqOxhA-25" style="edgeStyle=orthogonalEdgeStyle;rounded=0;orthogonalLoop=1;jettySize=auto;html=1;" parent="1" source="a5JTyvkSUc_b9KrqOxhA-21" target="a5JTyvkSUc_b9KrqOxhA-18" edge="1"><mxGeometry relative="1" as="geometry"/></mxCell><mxCell id="a5JTyvkSUc_b9KrqOxhA-57" style="edgeStyle=orthogonalEdgeStyle;rounded=0;orthogonalLoop=1;jettySize=auto;html=1;entryX=0;entryY=0.5;entryDx=0;entryDy=0;" parent="1" source="a5JTyvkSUc_b9KrqOxhA-21" target="a5JTyvkSUc_b9KrqOxhA-56" edge="1"><mxGeometry relative="1" as="geometry"/></mxCell><mxCell id="a5JTyvkSUc_b9KrqOxhA-21" value="2.User" style="shape=ellipse;html=1;dashed=0;whiteSpace=wrap;aspect=fixed;perimeter=ellipsePerimeter;" parent="1" vertex="1"><mxGeometry x="200" y="201" width="120" height="120" as="geometry"/></mxCell><mxCell id="a5JTyvkSUc_b9KrqOxhA-22" value="3. Delete" style="html=1;dashed=0;whiteSpace=wrap;" parent="1" vertex="1"><mxGeometry x="370" y="350" width="100" height="50" as="geometry"/></mxCell><mxCell id="a5JTyvkSUc_b9KrqOxhA-26" style="edgeStyle=orthogonalEdgeStyle;rounded=0;orthogonalLoop=1;jettySize=auto;html=1;entryX=0;entryY=0.6;entryDx=0;entryDy=0;entryPerimeter=0;" parent="1" source="a5JTyvkSUc_b9KrqOxhA-21" target="a5JTyvkSUc_b9KrqOxhA-22" edge="1"><mxGeometry relative="1" as="geometry"><Array as="points"><mxPoint x="330" y="265"/><mxPoint x="330" y="380"/></Array></mxGeometry></mxCell><mxCell id="a5JTyvkSUc_b9KrqOxhA-28" value="table&lt;div&gt;warehouse&lt;/div&gt;" style="shape=cylinder;whiteSpace=wrap;html=1;boundedLbl=1;backgroundOutline=1;" parent="1" vertex="1"><mxGeometry x="570" y="459" width="60" height="100" as="geometry"/></mxCell><mxCell id="a5JTyvkSUc_b9KrqOxhA-29" style="edgeStyle=orthogonalEdgeStyle;rounded=0;orthogonalLoop=1;jettySize=auto;html=1;entryX=0;entryY=0.5;entryDx=0;entryDy=0;" parent="1" source="a5JTyvkSUc_b9KrqOxhA-30" target="a5JTyvkSUc_b9KrqOxhA-28" edge="1"><mxGeometry relative="1" as="geometry"/></mxCell><mxCell id="a5JTyvkSUc_b9KrqOxhA-30" value="1. Create" style="html=1;dashed=0;whiteSpace=wrap;" parent="1" vertex="1"><mxGeometry x="390" y="439" width="100" height="50" as="geometry"/></mxCell><mxCell id="a5JTyvkSUc_b9KrqOxhA-31" value="2. Update" style="html=1;dashed=0;whiteSpace=wrap;" parent="1" vertex="1"><mxGeometry x="390" y="509" width="100" height="50" as="geometry"/></mxCell><mxCell id="a5JTyvkSUc_b9KrqOxhA-32" style="edgeStyle=orthogonalEdgeStyle;rounded=0;orthogonalLoop=1;jettySize=auto;html=1;entryX=-0.033;entryY=0.748;entryDx=0;entryDy=0;entryPerimeter=0;" parent="1" source="a5JTyvkSUc_b9KrqOxhA-31" target="a5JTyvkSUc_b9KrqOxhA-28" edge="1"><mxGeometry relative="1" as="geometry"/></mxCell><mxCell id="a5JTyvkSUc_b9KrqOxhA-33" style="edgeStyle=orthogonalEdgeStyle;rounded=0;orthogonalLoop=1;jettySize=auto;html=1;" parent="1" source="a5JTyvkSUc_b9KrqOxhA-34" target="a5JTyvkSUc_b9KrqOxhA-31" edge="1"><mxGeometry relative="1" as="geometry"/></mxCell><mxCell id="a5JTyvkSUc_b9KrqOxhA-34" value="3.Warehouse" style="shape=ellipse;html=1;dashed=0;whiteSpace=wrap;aspect=fixed;perimeter=ellipsePerimeter;" parent="1" vertex="1"><mxGeometry x="210" y="430" width="130" height="130" as="geometry"/></mxCell><mxCell id="a5JTyvkSUc_b9KrqOxhA-37" style="edgeStyle=orthogonalEdgeStyle;rounded=0;orthogonalLoop=1;jettySize=auto;html=1;entryX=-0.02;entryY=0.577;entryDx=0;entryDy=0;entryPerimeter=0;" parent="1" source="a5JTyvkSUc_b9KrqOxhA-34" target="a5JTyvkSUc_b9KrqOxhA-30" edge="1"><mxGeometry relative="1" as="geometry"/></mxCell><mxCell id="a5JTyvkSUc_b9KrqOxhA-40" style="edgeStyle=orthogonalEdgeStyle;rounded=0;orthogonalLoop=1;jettySize=auto;html=1;entryX=0.449;entryY=-0.001;entryDx=0;entryDy=0;entryPerimeter=0;" parent="1" source="a5JTyvkSUc_b9KrqOxhA-21" target="a5JTyvkSUc_b9KrqOxhA-34" edge="1"><mxGeometry relative="1" as="geometry"/></mxCell><mxCell id="a5JTyvkSUc_b9KrqOxhA-54" style="edgeStyle=orthogonalEdgeStyle;rounded=0;orthogonalLoop=1;jettySize=auto;html=1;entryX=0.5;entryY=0;entryDx=0;entryDy=0;" parent="1" source="a5JTyvkSUc_b9KrqOxhA-41" target="a5JTyvkSUc_b9KrqOxhA-42" edge="1"><mxGeometry relative="1" as="geometry"/></mxCell><mxCell id="a5JTyvkSUc_b9KrqOxhA-41" value="name&lt;div&gt;gender&lt;/div&gt;&lt;div&gt;username&lt;/div&gt;&lt;div&gt;pass&lt;/div&gt;" style="shape=parallelogram;perimeter=parallelogramPerimeter;whiteSpace=wrap;html=1;dashed=0;" parent="1" vertex="1"><mxGeometry x="970" y="50" width="120" height="70" as="geometry"/></mxCell><mxCell id="a5JTyvkSUc_b9KrqOxhA-44" style="edgeStyle=orthogonalEdgeStyle;rounded=0;orthogonalLoop=1;jettySize=auto;html=1;" parent="1" source="a5JTyvkSUc_b9KrqOxhA-42" edge="1"><mxGeometry relative="1" as="geometry"><mxPoint x="1140.0000000000002" y="250.0000000000001" as="targetPoint"/></mxGeometry></mxCell><mxCell id="a5JTyvkSUc_b9KrqOxhA-49" style="edgeStyle=orthogonalEdgeStyle;rounded=0;orthogonalLoop=1;jettySize=auto;html=1;" parent="1" source="a5JTyvkSUc_b9KrqOxhA-42" edge="1"><mxGeometry relative="1" as="geometry"><mxPoint x="910.0000000000002" y="250.0000000000001" as="targetPoint"/></mxGeometry></mxCell><mxCell id="a5JTyvkSUc_b9KrqOxhA-42" value="old_username&amp;nbsp;&lt;div&gt;!= new_username&lt;/div&gt;" style="shape=rhombus;html=1;dashed=0;whiteSpace=wrap;perimeter=rhombusPerimeter;" parent="1" vertex="1"><mxGeometry x="955" y="150" width="150" height="99" as="geometry"/></mxCell><mxCell id="a5JTyvkSUc_b9KrqOxhA-53" style="edgeStyle=orthogonalEdgeStyle;rounded=0;orthogonalLoop=1;jettySize=auto;html=1;entryX=0.5;entryY=0;entryDx=0;entryDy=0;" parent="1" source="a5JTyvkSUc_b9KrqOxhA-43" target="a5JTyvkSUc_b9KrqOxhA-41" edge="1"><mxGeometry relative="1" as="geometry"/></mxCell><mxCell id="a5JTyvkSUc_b9KrqOxhA-43" value="Start" style="html=1;dashed=0;whiteSpace=wrap;shape=mxgraph.dfd.start" parent="1" vertex="1"><mxGeometry x="990" width="80" height="30" as="geometry"/></mxCell><mxCell id="a5JTyvkSUc_b9KrqOxhA-45" value="True" style="text;html=1;align=center;verticalAlign=middle;resizable=0;points=[];autosize=1;strokeColor=none;fillColor=none;" parent="1" vertex="1"><mxGeometry x="1120" y="170" width="50" height="30" as="geometry"/></mxCell><mxCell id="a5JTyvkSUc_b9KrqOxhA-73" style="edgeStyle=orthogonalEdgeStyle;rounded=0;orthogonalLoop=1;jettySize=auto;html=1;entryX=0;entryY=0.5;entryDx=0;entryDy=0;" parent="1" source="a5JTyvkSUc_b9KrqOxhA-46" target="a5JTyvkSUc_b9KrqOxhA-70" edge="1"><mxGeometry relative="1" as="geometry"><Array as="points"><mxPoint x="910" y="370"/><mxPoint x="982" y="370"/></Array></mxGeometry></mxCell><mxCell id="a5JTyvkSUc_b9KrqOxhA-46" value="alert message&amp;nbsp;&lt;div&gt;dpl&lt;/div&gt;" style="html=1;dashed=0;whiteSpace=wrap;" parent="1" vertex="1"><mxGeometry x="860" y="251" width="100" height="61" as="geometry"/></mxCell><mxCell id="a5JTyvkSUc_b9KrqOxhA-48" value="False" style="text;html=1;align=center;verticalAlign=middle;resizable=0;points=[];autosize=1;strokeColor=none;fillColor=none;" parent="1" vertex="1"><mxGeometry x="890" y="161" width="50" height="30" as="geometry"/></mxCell><mxCell id="a5JTyvkSUc_b9KrqOxhA-68" style="edgeStyle=orthogonalEdgeStyle;rounded=0;orthogonalLoop=1;jettySize=auto;html=1;entryX=0;entryY=0.5;entryDx=0;entryDy=0;" parent="1" source="a5JTyvkSUc_b9KrqOxhA-56" target="a5JTyvkSUc_b9KrqOxhA-67" edge="1"><mxGeometry relative="1" as="geometry"/></mxCell><mxCell id="a5JTyvkSUc_b9KrqOxhA-56" value="Create" style="html=1;dashed=0;whiteSpace=wrap;" parent="1" vertex="1"><mxGeometry x="370" y="220" width="100" height="50" as="geometry"/></mxCell><mxCell id="a5JTyvkSUc_b9KrqOxhA-59" style="edgeStyle=orthogonalEdgeStyle;rounded=0;orthogonalLoop=1;jettySize=auto;html=1;entryX=0.035;entryY=0.603;entryDx=0;entryDy=0;entryPerimeter=0;" parent="1" source="a5JTyvkSUc_b9KrqOxhA-18" target="a5JTyvkSUc_b9KrqOxhA-15" edge="1"><mxGeometry relative="1" as="geometry"/></mxCell><mxCell id="a5JTyvkSUc_b9KrqOxhA-60" style="edgeStyle=orthogonalEdgeStyle;rounded=0;orthogonalLoop=1;jettySize=auto;html=1;entryX=0.035;entryY=0.796;entryDx=0;entryDy=0;entryPerimeter=0;" parent="1" source="a5JTyvkSUc_b9KrqOxhA-22" target="a5JTyvkSUc_b9KrqOxhA-15" edge="1"><mxGeometry relative="1" as="geometry"/></mxCell><mxCell id="a5JTyvkSUc_b9KrqOxhA-67" value="&lt;span style=&quot;text-wrap: nowrap;&quot;&gt;&lt;font style=&quot;font-size: 6px;&quot;&gt;username&lt;/font&gt;&lt;/span&gt;&lt;div&gt;&lt;font style=&quot;font-size: 6px;&quot;&gt;&lt;span style=&quot;text-wrap: nowrap;&quot;&gt;email&lt;/span&gt;&lt;span style=&quot;text-wrap: nowrap;&quot;&gt;&lt;br&gt;&lt;/span&gt;&lt;/font&gt;&lt;/div&gt;&lt;div&gt;&lt;span style=&quot;text-wrap: nowrap;&quot;&gt;&lt;font style=&quot;font-size: 6px;&quot;&gt;phone&lt;/font&gt;&lt;/span&gt;&lt;span style=&quot;text-wrap: nowrap;&quot;&gt;&lt;br&gt;&lt;/span&gt;&lt;/div&gt;" style="shape=rhombus;html=1;dashed=0;whiteSpace=wrap;perimeter=rhombusPerimeter;" parent="1" vertex="1"><mxGeometry x="540" y="189" width="110" height="61" as="geometry"/></mxCell><mxCell id="a5JTyvkSUc_b9KrqOxhA-69" style="edgeStyle=orthogonalEdgeStyle;rounded=0;orthogonalLoop=1;jettySize=auto;html=1;entryX=0.992;entryY=0.54;entryDx=0;entryDy=0;entryPerimeter=0;exitX=1;exitY=0.5;exitDx=0;exitDy=0;" parent="1" source="a5JTyvkSUc_b9KrqOxhA-67" target="a5JTyvkSUc_b9KrqOxhA-15" edge="1"><mxGeometry relative="1" as="geometry"/></mxCell><mxCell id="a5JTyvkSUc_b9KrqOxhA-75" style="edgeStyle=orthogonalEdgeStyle;rounded=0;orthogonalLoop=1;jettySize=auto;html=1;" parent="1" source="a5JTyvkSUc_b9KrqOxhA-70" target="a5JTyvkSUc_b9KrqOxhA-74" edge="1"><mxGeometry relative="1" as="geometry"/></mxCell><mxCell id="a5JTyvkSUc_b9KrqOxhA-70" value="User record" style="shape=parallelogram;perimeter=parallelogramPerimeter;whiteSpace=wrap;html=1;dashed=0;" parent="1" vertex="1"><mxGeometry x="970" y="340" width="120" height="70" as="geometry"/></mxCell><mxCell id="a5JTyvkSUc_b9KrqOxhA-74" value="Stop" style="html=1;dashed=0;whiteSpace=wrap;shape=mxgraph.dfd.start" parent="1" vertex="1"><mxGeometry x="980" y="449" width="80" height="30" as="geometry"/></mxCell></root></mxGraphModel></diagram></mxfile>